<svg width="39" height="45" viewBox="0 0 39 45" fill="none" xmlns="http://www.w3.org/2000/svg">
<g clip-path="url(#clip0_1181_693)">
<path d="M39 10.2317V36.3111C39 38.0061 37.8105 39.3786 36.3415 39.3786H30.1356V21.9936L19.5 31.1999L8.86438 21.9936V39.3805H2.6585C2.30924 39.3805 1.96341 39.3011 1.64076 39.1468C1.31811 38.9925 1.02497 38.7664 0.778082 38.4814C0.531197 38.1963 0.335407 37.8579 0.2019 37.4856C0.0683936 37.1132 -0.000212985 36.7141 4.96684e-07 36.3111V10.2317C4.96684e-07 6.43861 3.75213 4.27299 6.38138 6.54924L8.86438 8.69986L19.5 17.9024L30.1356 8.69611L32.6186 6.54924C35.2462 4.27486 39 6.43861 39 10.2317Z" fill="#F8F8F8"/>
</g>
<defs>
<clipPath id="clip0_1181_693">
<rect width="39" height="45" fill="white"/>
</clipPath>
</defs>
</svg>
