<svg width="48" height="49" viewBox="0 0 48 49" fill="none" xmlns="http://www.w3.org/2000/svg">
<path d="M38.1001 10.0244C36.2665 8.13364 34.0825 6.63453 31.6754 5.61448C29.2683 4.59443 26.6863 4.07386 24.0801 4.08313C13.1601 4.08313 4.2601 13.1685 4.2601 24.316C4.2601 27.889 5.1801 31.3598 6.9001 34.4223L4.1001 44.9165L14.6001 42.099C17.5001 43.7119 20.7601 44.5694 24.0801 44.5694C35.0001 44.5694 43.9001 35.484 43.9001 24.3365C43.9001 18.926 41.8401 13.8423 38.1001 10.0244ZM24.0801 41.1394C21.1201 41.1394 18.2201 40.3227 15.6801 38.7915L15.0801 38.424L8.8401 40.0981L10.5001 33.8915L10.1001 33.2585C8.45559 30.5778 7.58238 27.4791 7.5801 24.316C7.5801 15.0469 14.9801 7.49271 24.0601 7.49271C28.4601 7.49271 32.6001 9.24855 35.7001 12.4335C37.2351 13.9933 38.4515 15.8486 39.2789 17.8918C40.1063 19.935 40.5282 22.1256 40.5201 24.3365C40.5601 33.6056 33.1601 41.1394 24.0801 41.1394ZM33.1201 28.5627C32.6201 28.3177 30.1801 27.0927 29.7401 26.909C29.2801 26.7456 28.9601 26.664 28.6201 27.154C28.2801 27.6644 27.3401 28.8077 27.0601 29.1344C26.7801 29.4815 26.4801 29.5223 25.9801 29.2569C25.4801 29.0119 23.8801 28.4606 22.0001 26.7456C20.5201 25.3981 19.5401 23.7444 19.2401 23.234C18.9601 22.7235 19.2001 22.4581 19.4601 22.1927C19.6801 21.9681 19.9601 21.6006 20.2001 21.3148C20.4401 21.029 20.5401 20.8044 20.7001 20.4777C20.8601 20.1306 20.7801 19.8448 20.6601 19.5998C20.5401 19.3548 19.5401 16.864 19.1401 15.8431C18.7401 14.8631 18.3201 14.9856 18.0201 14.9652H17.0601C16.7201 14.9652 16.2001 15.0877 15.7401 15.5981C15.3001 16.1085 14.0201 17.3335 14.0201 19.8244C14.0201 22.3152 15.8001 24.7244 16.0401 25.051C16.2801 25.3981 19.5401 30.5023 24.5001 32.6869C25.6801 33.2177 26.6001 33.524 27.3201 33.7485C28.5001 34.1365 29.5801 34.0752 30.4401 33.9527C31.4001 33.8098 33.3801 32.7277 33.7801 31.5435C34.2001 30.3594 34.2001 29.359 34.0601 29.1344C33.9201 28.9098 33.6201 28.8077 33.1201 28.5627Z" fill="#F8F8F8"/>
</svg>
