<svg width="28" height="28" viewBox="0 0 28 28" fill="none" xmlns="http://www.w3.org/2000/svg">
<rect x="0.2" y="0.2" width="27.0762" height="27.0762" rx="13.5381" stroke="#213036" stroke-opacity="0.6" stroke-width="0.4"/>
<path d="M11.8298 16.682C11.8298 16.5519 11.8801 16.4271 11.9695 16.335C12.059 16.243 12.1803 16.1913 12.3068 16.1913H15.1689C15.2954 16.1913 15.4168 16.243 15.5062 16.335C15.5957 16.4271 15.6459 16.5519 15.6459 16.682C15.6459 16.8121 15.5957 16.9369 15.5062 17.0289C15.4168 17.1209 15.2954 17.1726 15.1689 17.1726H12.3068C12.1803 17.1726 12.059 17.1209 11.9695 17.0289C11.8801 16.9369 11.8298 16.8121 11.8298 16.682ZM9.92174 13.7381C9.92174 13.608 9.972 13.4832 10.0615 13.3912C10.1509 13.2992 10.2722 13.2475 10.3988 13.2475H17.077C17.2035 13.2475 17.3248 13.2992 17.4143 13.3912C17.5038 13.4832 17.554 13.608 17.554 13.7381C17.554 13.8682 17.5038 13.993 17.4143 14.085C17.3248 14.1771 17.2035 14.2288 17.077 14.2288H10.3988C10.2722 14.2288 10.1509 14.1771 10.0615 14.085C9.972 13.993 9.92174 13.8682 9.92174 13.7381ZM8.01367 10.7942C8.01367 10.6641 8.06393 10.5393 8.15339 10.4473C8.24284 10.3553 8.36418 10.3036 8.49069 10.3036H18.9851C19.1116 10.3036 19.2329 10.3553 19.3224 10.4473C19.4118 10.5393 19.4621 10.6641 19.4621 10.7942C19.4621 10.9244 19.4118 11.0492 19.3224 11.1412C19.2329 11.2332 19.1116 11.2849 18.9851 11.2849H8.49069C8.36418 11.2849 8.24284 11.2332 8.15339 11.1412C8.06393 11.0492 8.01367 10.9244 8.01367 10.7942Z" fill="#213036"/>
</svg>
