<svg width="12" height="11" viewBox="0 0 12 11" fill="none" xmlns="http://www.w3.org/2000/svg">
<mask id="path-1-inside-1_1072_991" fill="white">
<path fill-rule="evenodd" clip-rule="evenodd" d="M5.66491 10.6805L5.66516 10.6807L10.05 6.51506L10.0497 6.5148L10.4881 6.09833C11.6989 4.94802 11.748 3.03393 10.5976 1.82311C9.44732 0.612282 7.53324 0.563228 6.32242 1.71354L5.88404 2.13001L5.46772 1.6918C4.31741 0.480969 2.40332 0.431916 1.1925 1.58223C-0.0183272 2.73255 -0.0673812 4.64663 1.08293 5.85746L1.49925 6.29567L1.49915 6.29577L5.66481 10.6806L5.66491 10.6805Z"/>
</mask>
<path d="M5.66516 10.6807L4.94017 11.3695L5.62893 12.0945L6.35392 11.4057L5.66516 10.6807ZM5.66491 10.6805L6.3899 9.9917L5.70114 9.26671L4.97615 9.95547L5.66491 10.6805ZM10.05 6.51506L10.7387 7.24005L11.4637 6.55129L10.7749 5.8263L10.05 6.51506ZM10.0497 6.5148L9.36094 5.78981L8.63595 6.47857L9.32471 7.20356L10.0497 6.5148ZM5.88404 2.13001L5.15905 2.81877L5.84781 3.54376L6.5728 2.855L5.88404 2.13001ZM5.46772 1.6918L4.74273 2.38055L5.46772 1.6918ZM1.08293 5.85746L1.80792 5.1687L1.08293 5.85746ZM1.49925 6.29567L2.18801 7.02066L2.913 6.3319L2.22424 5.60691L1.49925 6.29567ZM1.49915 6.29577L0.810388 5.57078L0.0853974 6.25954L0.774157 6.98453L1.49915 6.29577ZM5.66481 10.6806L4.93982 11.3693L5.62858 12.0943L6.35357 11.4055L5.66481 10.6806ZM6.39015 9.99196L6.3899 9.9917L4.93992 11.3692L4.94017 11.3695L6.39015 9.99196ZM9.36119 5.79007L4.9764 9.95573L6.35392 11.4057L10.7387 7.24005L9.36119 5.79007ZM9.32471 7.20356L9.32496 7.20382L10.7749 5.8263L10.7747 5.82604L9.32471 7.20356ZM9.79932 5.37334L9.36094 5.78981L10.7385 7.23979L11.1768 6.82332L9.79932 5.37334ZM9.87265 2.51187C10.6426 3.32229 10.6097 4.60342 9.79932 5.37334L11.1768 6.82332C12.7881 5.29262 12.8533 2.74558 11.3226 1.13435L9.87265 2.51187ZM7.01117 2.43853C7.8216 1.66861 9.10272 1.70144 9.87265 2.51187L11.3226 1.13435C9.79192 -0.476878 7.24488 -0.542154 5.63366 0.988553L7.01117 2.43853ZM6.5728 2.855L7.01117 2.43853L5.63366 0.988553L5.19528 1.40502L6.5728 2.855ZM4.74273 2.38055L5.15905 2.81877L6.60903 1.44125L6.19271 1.00304L4.74273 2.38055ZM1.88126 2.30722C2.69168 1.5373 3.97281 1.57013 4.74273 2.38055L6.19271 1.00304C4.66201 -0.608191 2.11497 -0.673465 0.503739 0.857241L1.88126 2.30722ZM1.80792 5.1687C1.038 4.35827 1.07083 3.07715 1.88126 2.30722L0.503739 0.857241C-1.10749 2.38795 -1.17276 4.93499 0.357944 6.54621L1.80792 5.1687ZM2.22424 5.60691L1.80792 5.1687L0.357944 6.54621L0.774261 6.98443L2.22424 5.60691ZM2.18791 7.02076L2.18801 7.02066L0.810492 5.57068L0.810388 5.57078L2.18791 7.02076ZM6.3898 9.9918L2.22414 5.60701L0.774157 6.98453L4.93982 11.3693L6.3898 9.9918ZM4.97615 9.95547L4.97605 9.95557L6.35357 11.4055L6.35367 11.4055L4.97615 9.95547Z" fill="#7360DF" mask="url(#path-1-inside-1_1072_991)"/>
</svg>
