<svg width="33" height="31" viewBox="0 0 33 31" fill="none" xmlns="http://www.w3.org/2000/svg">
<path d="M32.012 23.0158C31.7265 25.0801 30.6607 26.9749 29.0138 28.3464C27.3668 29.7179 25.2514 30.4722 23.0625 30.4684C10.3461 30.4684 1.4492e-05 20.627 1.4492e-05 8.53094C-0.0039093 6.44885 0.789084 4.43659 2.23088 2.86999C3.67268 1.3034 5.66469 0.289612 7.83486 0.017973C8.38364 -0.0457662 8.93937 0.0610282 9.4191 0.322414C9.89883 0.583801 10.2768 0.985759 10.4967 1.46829L13.8792 8.65129V8.66957C14.0475 9.03894 14.117 9.4422 14.0815 9.84335C14.046 10.2445 13.9066 10.631 13.6758 10.9684C13.6469 11.0096 13.6165 11.0477 13.5845 11.0857L10.25 14.8456C11.4496 17.1643 13.9993 19.5682 16.4689 20.7123L20.3671 17.5573C20.4054 17.5267 20.4455 17.4982 20.4872 17.472C20.8416 17.2471 21.2494 17.1099 21.6736 17.0726C22.0978 17.0354 22.5251 17.0994 22.9168 17.2587L22.9376 17.2679L30.4826 20.4838C30.9907 20.6922 31.4143 21.0514 31.69 21.5078C31.9657 21.9642 32.0787 22.4932 32.012 23.0158Z" fill="#F8F8F8"/>
</svg>
