<svg width="24" height="24" viewBox="0 0 24 24" fill="none" xmlns="http://www.w3.org/2000/svg">
<path fill-rule="evenodd" clip-rule="evenodd" d="M18.865 5.12377C19.302 5.27677 19.594 5.68877 19.594 6.15177V12.9248C19.594 14.8178 18.905 16.6248 17.691 18.0248C17.079 18.7298 16.307 19.2788 15.486 19.7228L11.928 21.6448L8.364 19.7218C7.541 19.2778 6.768 18.7298 6.156 18.0238C4.94 16.6238 4.25 14.8158 4.25 12.9208V6.15177C4.25 5.68877 4.542 5.27677 4.979 5.12377L11.561 2.81077C11.795 2.72877 12.05 2.72877 12.283 2.81077L18.865 5.12377Z" stroke="#864AF9" stroke-width="1.5" stroke-linecap="round" stroke-linejoin="round"/>
<path opacity="0.4" d="M13.801 13.8464L10.043 10.0884M10.0432 13.8464L13.8012 10.0884" stroke="#864AF9" stroke-width="1.5" stroke-linecap="round" stroke-linejoin="round"/>
</svg>
