<svg width="17" height="21" viewBox="0 0 17 21" fill="none" xmlns="http://www.w3.org/2000/svg">
<path d="M8.50033 20.9166C9.64616 20.9166 10.5837 19.9791 10.5837 18.8333H6.41699C6.41699 19.9791 7.35449 20.9166 8.50033 20.9166ZM14.7503 14.6666V9.45829C14.7503 6.26038 13.0524 3.58329 10.0628 2.87496V2.16663C10.0628 1.30204 9.36491 0.604126 8.50033 0.604126C7.63574 0.604126 6.93783 1.30204 6.93783 2.16663V2.87496C3.95866 3.58329 2.25033 6.24996 2.25033 9.45829V14.6666L0.166992 16.75V17.7916H16.8337V16.75L14.7503 14.6666ZM12.667 15.7083H4.33366V9.45829C4.33366 6.87496 5.90658 4.77079 8.50033 4.77079C11.0941 4.77079 12.667 6.87496 12.667 9.45829V15.7083Z" fill="black"/>
</svg>
